# xmcd
#
# Track frame offsets:
#	150
#	15963
#	32278
#	52243
#	65578
#	84592
#	101659
#	111935
#	130322
#	154845
#
# Disc length: 2338 seconds
#
# Revision: 0
# Processed by: cddbd v1.5PL3 Copyright (c) Steve Scherf et al.
# Submitted via: dBpowerAMP V4.0
#
DISCID=7d09200a
DTITLE=The Wichitas - From Greetings...To Adios
DYEAR=1900
DGENRE=Country
TTITLE0=Greetings From Bakersfield
TTITLE1=S.O.S.
TTITLE2=Heart
TTITLE3=Tell Me All The Reasons
TTITLE4=Mama's Gone Crazy
TTITLE5=It's Up To You
TTITLE6=Dry County
TTITLE7=Little Too Much
TTITLE8=Adios
TTITLE9=DATA
EXTD=
EXTT0=
EXTT1=
EXTT2=
EXTT3=
EXTT4=
EXTT5=
EXTT6=
EXTT7=
EXTT8=
EXTT9=
PLAYORDER=
